#!OML:ASF H:\charlestonDancing\Project 1\Capture day 1\Session 1\femaleDancer.ASF
:FULLY-SPECIFIED
:DEGREES
840
root -14.0704 17.9413 -2.32643 51.0269 -111.171 -70.8792
lowerback 19.0345 -6.93195 -1.26428
upperback 6.08438 -10.1546 -4.51446
thorax -4.59143 -5.22562 -1.74828
lowerneck 5.89438 10.0024 9.13648
upperneck 3.24918 14.1149 -16.8886
head 1.85947 7.08939 -6.41001
rclavicle 2.8625e-014 1.03368e-013
rhumerus -227.274 179.484 -244.26
rradius 52.0526
rwrist 22.6309
rhand -18.333 -30.1536
rfingers 7.12502
rthumb 187.949 120.016
lclavicle 2.8625e-014 1.03368e-013
lhumerus -27.59 -0.542951 50.9971
lradius 40.7701
lwrist -16.4179
lhand -26.4779 19.2306
lfingers 7.12502
lthumb 0.0841353 49.2103
rfemur 6.81301 4.06649 6.22011
rtibia 32.7786
rfoot -19.7324 -10.933
rtoes 6.5483
lfemur -52.4827 -16.6168 16.7802
ltibia 55.7487
lfoot 17.0824 5.40161
ltoes -5.32205
841
root -14.1177 17.8851 -2.34417 51.7141 -109.718 -71.1227
lowerback 18.8232 -7.00132 -0.206289
upperback 5.8728 -9.98324 -4.10461
thorax -4.79963 -5.12166 -1.93809
lowerneck 5.77945 10.2444 9.24409
upperneck 4.02779 14.5269 -16.7968
head 2.16232 7.26251 -6.35136
rclavicle 9.22361e-014 -1.43125e-014
rhumerus -229.249 180.053 -241.568
rradius 52.6771
rwrist 21.4138
rhand -19.2036 -28.4315
rfingers 7.12502
rthumb 187.109 121.708
lclavicle 9.22361e-014 -1.43125e-014
lhumerus -25.4113 -1.92177 51.0167
lradius 41.739
lwrist -16.3276
lhand -27.7128 18.7056
lfingers 7.12502
lthumb -1.10855 48.6824
rfemur 6.30118 3.76417 7.74429
rtibia 33.8299
rfoot -20.2764 -11.5712
rtoes 5.96509
lfemur -52.4805 -17.3422 16.7865
ltibia 60.6893
lfoot 19.7606 3.12882
ltoes -8.18333
842
root -14.1725 17.8437 -2.35321 51.0342 -108.831 -69.6427
lowerback 18.2487 -6.82819 0.83701
upperback 5.54957 -9.50087 -3.78297
thorax -4.92965 -4.86808 -2.32361
lowerneck 6.01091 10.4958 9.47794
upperneck 4.58334 14.9544 -16.881
head 2.36858 7.46631 -6.39042
rclavicle 9.64106e-014 -6.36111e-015
rhumerus -231.365 179.728 -239.165
rradius 54.1294
rwrist 20.4003
rhand -18.0564 -28.4868
rfingers 7.12502
rthumb 188.216 121.693
lclavicle 9.64106e-014 -6.36111e-015
lhumerus -23.7181 -2.67295 50.6888
lradius 42.441
lwrist -17.4941
lhand -29.0124 19.6181
lfingers 7.12502
lthumb -2.36364 49.5847
rfemur 5.2647 3.65263 8.92562
rtibia 34.807
rfoot -20.7453 -11.8746
rtoes 4.66404
lfemur -52.0486 -17.1935 16.3431
ltibia 65.6386
lfoot 22.1689 0.730587
ltoes -11.7524
843
root -14.209 17.8175 -2.36145 50.7214 -108.554 -68.1764
lowerback 17.4611 -6.51257 1.38811
upperback 5.11617 -8.93833 -3.6164
thorax -4.99971 -4.57701 -2.63977
lowerneck 6.18834 10.7989 9.72196
upperneck 5.13655 15.4527 -16.9843
head 2.5973 7.70278 -6.42774
rclavicle -1.09928e-013 -2.54444e-014
rhumerus -231.935 179.943 -236.466
rradius 53.9175
rwrist 22.2844
rhand -15.0326 -29.8989
rfingers 7.12502
rthumb 191.133 120.416
lclavicle -1.09928e-013 -2.54444e-014
lhumerus -22.4949 -2.66468 50.0436
lradius 42.6458
lwrist -18.3872
lhand -32.3503 17.0441
lfingers 7.12502
lthumb -5.58697 46.9504
rfemur 3.72375 3.45154 9.38538
rtibia 35.6532
rfoot -21.08 -11.7475
rtoes 4.89843
lfemur -51.6832 -16.6458 15.3124
ltibia 70.3816
lfoot 25.7875 0.156942
ltoes -10.3362
844
root -14.2539 17.8178 -2.36772 50.4409 -108.98 -66.9576
lowerback 16.6584 -6.09489 1.44273
upperback 4.78679 -8.36511 -3.73863
thorax -4.91431 -4.28802 -2.99271
lowerneck 6.24574 11.2353 10.1462
upperneck 5.80119 16.1609 -17.1974
head 2.93472 8.0359 -6.49851
rclavicle 8.5875e-014 -7.4743e-014
rhumerus -232.054 179.52 -234.275
rradius 53.8066
rwrist 23.9904
rhand -15.3719 -28.4199
rfingers 7.12502
rthumb 190.806 121.878
lclavicle 8.5875e-014 -7.4743e-014
lhumerus -21.9625 -1.57833 48.9285
lradius 42.5607
lwrist -21.0295
lhand -32.2718 19.8987
lfingers 7.12502
lthumb -5.51113 49.8071
rfemur 2.48911 3.33707 9.02127
rtibia 36.2639
rfoot -21.4731 -11.0909
rtoes 5.68444
lfemur -50.7231 -16.3426 13.4052
ltibia 74.7788
lfoot 28.1664 -0.873909
ltoes -12.2173
845
root -14.2871 17.8233 -2.36521 49.6819 -109.427 -65.1321
lowerback 16.0531 -5.70527 1.64635
upperback 4.37008 -7.80671 -3.88327
thorax -5.04195 -4.00808 -3.41563
lowerneck 6.25972 12.0191 9.85326
upperneck 6.38485 17.221 -16.1423
head 3.14206 8.55489 -6.04316
rclavicle -8.36883e-014 0
rhumerus -231.583 178.553 -232.591
rradius 54.2077
rwrist 23.8805
rhand -14.6451 -29.092
rfingers 7.12502
rthumb 191.507 121.244
lclavicle -8.36883e-014 0
lhumerus -22.2674 -0.234828 47.6303
lradius 42.372
lwrist -21.3985
lhand -33.6489 19.1047
lfingers 7.12502
lthumb -6.84061 48.9742
rfemur 1.09251 3.37033 8.77941
rtibia 36.737
rfoot -21.7707 -10.4837
rtoes 5.03541
lfemur -49.8691 -15.9989 11.6501
ltibia 78.8681
lfoot 29.7194 -1.65305
ltoes -11.4685
846
root -14.3121 17.8531 -2.36024 49.2881 -109.912 -63.6855
lowerback 15.5651 -5.33229 1.84311
upperback 3.98613 -7.28269 -4.09383
thorax -5.19831 -3.74987 -3.88523
lowerneck 5.67659 12.6329 9.31807
upperneck 7.33054 18.0135 -14.8352
head 3.46155 8.90305 -5.44914
rclavicle 2.82274e-014 -5.88403e-014
rhumerus -230.574 177.554 -231.068
rradius 54.4848
rwrist 24.2352
rhand -14.8267 -28.8987
rfingers 7.12502
rthumb 191.332 121.427
lclavicle 2.82274e-014 -5.88403e-014
lhumerus -23.0399 1.20658 46.2251
lradius 42.3242
lwrist -21.1975
lhand -33.6807 19.5287
lfingers 7.12502
lthumb -6.87139 49.3972
rfemur -0.221972 3.30128 8.42818
rtibia 37.0137
rfoot -21.8458 -9.96097
rtoes 3.97388
lfemur -49.1528 -15.9598 9.69725
ltibia 82.728
lfoot 30.7986 -2.88846
ltoes -10.1054
847
root -14.3506 17.8621 -2.33778 47.1763 -110.107 -60.7444
lowerback 15.2514 -4.91967 2.59859
upperback 3.78879 -6.61653 -4.19552
thorax -5.27301 -3.42975 -4.57703
lowerneck 5.51848 13.0217 8.85823
upperneck 7.66565 18.4837 -14.0041
head 3.5288 9.12501 -5.08277
rclavicle 6.71892e-014 -1.27222e-014
rhumerus -229.089 176.61 -229.663
rradius 55.0003
rwrist 23.8715
rhand -16.6953 -27.3232
rfingers 7.12502
rthumb 189.529 122.912
lclavicle 6.71892e-014 -1.27222e-014
lhumerus -24.059 2.58771 44.7845
lradius 41.9234
lwrist -20.627
lhand -33.0645 20.1851
lfingers 7.12502
lthumb -6.27645 50.0721
rfemur -1.24329 3.59927 8.74396
rtibia 37.2552
rfoot -21.7818 -9.48336
rtoes 3.76505
lfemur -48.3486 -15.9974 8.27559
ltibia 86.6742
lfoot 31.2531 -4.96747
ltoes -10.9531
848
root -14.3885 17.8624 -2.3101 44.2573 -110.251 -57.1385
lowerback 15.0887 -4.44128 3.4637
upperback 3.66211 -5.84398 -4.22396
thorax -5.32203 -3.0591 -5.27114
lowerneck 6.0692 13.3181 7.7477
upperneck 7.32724 18.7232 -12.8431
head 3.15779 9.2716 -4.6306
rclavicle -7.5737e-014 9.54166e-015
rhumerus -227.245 175.647 -228.334
rradius 55.7734
rwrist 23.688
rhand -16.6455 -28.1939
rfingers 7.12502
rthumb 189.577 122.044
lclavicle -7.5737e-014 9.54166e-015
lhumerus -25.3972 3.83303 43.3165
lradius 41.155
lwrist -20.3827
lhand -32.2772 20.7461
lfingers 7.12502
lthumb -5.51635 50.6543
rfemur -2.09673 4.2586 9.40229
rtibia 37.4425
rfoot -21.6341 -9.19255
rtoes 4.14506
lfemur -47.6115 -16.2003 7.09695
ltibia 90.6436
lfoot 31.3009 -6.72387
ltoes -11.7405
849
root -14.427 17.8654 -2.28006 42.1625 -110.613 -54.5094
lowerback 14.9815 -3.91379 3.94815
upperback 3.55098 -5.07619 -4.34724
thorax -5.33759 -2.68885 -5.84982
lowerneck 5.6103 13.3451 10.8645
upperneck 8.95097 19.3164 -16.1332
head 4.40341 9.48645 -5.89771
rclavicle -5.56597e-015 -1.90833e-014
rhumerus -225.174 174.789 -226.868
rradius 56.3244
rwrist 24.4369
rhand -17.2647 -27.5912
rfingers 7.12502
rthumb 188.98 122.62
lclavicle -5.56597e-015 -1.90833e-014
lhumerus -27.1027 4.74287 41.8857
lradius 40.23
lwrist -20.3248
lhand -31.4679 21.3055
lfingers 7.12502
lthumb -4.73495 51.2326
rfemur -2.81869 4.89712 9.68171
rtibia 37.6906
rfoot -21.5583 -9.0505
rtoes 4.54594
lfemur -47.1485 -16.9358 5.50172
ltibia 94.6387
lfoot 31.6043 -8.07775
ltoes -14.911
